<svg width="16" height="20" viewBox="0 0 16 20" fill="none" xmlns="http://www.w3.org/2000/svg">
<path fill-rule="evenodd" clip-rule="evenodd" d="M0 16.8751C0 18.5981 1.41457 20 3.15352 20H12.8465C14.5852 20 16 18.5983 16 16.8751V15.6251V3.12494C16 1.40194 14.5854 0 12.8465 0H3.15352C1.41477 0 0 1.40174 0 3.12494V16.8751ZM3.93734 6.09668H10.8231C11.2586 6.09668 11.6114 6.44651 11.6114 6.87786C11.6114 7.30921 11.2586 7.65904 10.8231 7.65904H3.93734C3.50205 7.65904 3.14901 7.30921 3.14901 6.87786C3.14901 6.44651 3.50184 6.09668 3.93734 6.09668ZM12.8464 10.0027C12.8464 9.57119 12.4934 9.22156 12.0581 9.22156H3.93734C3.50184 9.22156 3.14901 9.57139 3.14901 10.0027C3.14901 10.4341 3.50205 10.7839 3.93734 10.7839H12.0579C12.4934 10.7839 12.8464 10.4343 12.8464 10.0027ZM3.14901 13.1276C3.14901 12.6963 3.50184 12.3464 3.93734 12.3464H9.04392C9.47921 12.3464 9.83224 12.6963 9.83224 13.1276C9.83224 13.559 9.47942 13.9088 9.04392 13.9088H3.93734C3.50205 13.9088 3.14901 13.559 3.14901 13.1276Z" fill="url(#paint0_linear)"/>
<defs>
<linearGradient id="paint0_linear" x1="8" y1="20" x2="8" y2="4.28409e-07" gradientUnits="userSpaceOnUse">
<stop stop-color="#159957"/>
<stop offset="0.989867" stop-color="#155799"/>
</linearGradient>
</defs>
</svg>
