<svg width="16" height="20" viewBox="0 0 16 20" fill="none" xmlns="http://www.w3.org/2000/svg">
<path d="M13.2405 19.2188C13.2405 19.6504 12.8875 20 12.4522 20H3.15352C1.41457 20 0 18.5981 0 16.8751V3.12494C0 1.40174 1.41477 0 3.15352 0H12.8465C14.5854 0 16 1.40194 16 3.12494V15.6251C16 16.0566 15.647 16.4063 15.2117 16.4063C14.7762 16.4063 14.4233 16.0564 14.4233 15.6251V3.12494C14.4233 2.26344 13.7161 1.56237 12.8465 1.56237H3.15352C2.28415 1.56237 1.57666 2.26324 1.57666 3.12494V16.8751C1.57666 17.7366 2.28394 18.4376 3.15352 18.4376H12.4522C12.8877 18.4374 13.2405 18.7873 13.2405 19.2188Z" fill="#D4D4D4"/>
<path d="M10.8235 6.09619H3.93774C3.50224 6.09619 3.14941 6.44602 3.14941 6.87737C3.14941 7.30872 3.50245 7.65856 3.93774 7.65856H10.8235C11.259 7.65856 11.6118 7.30872 11.6118 6.87737C11.6118 6.44602 11.259 6.09619 10.8235 6.09619Z" fill="#D4D4D4"/>
<path d="M12.8468 10.0024C12.8468 9.57082 12.4938 9.22119 12.0585 9.22119H3.93774C3.50224 9.22119 3.14941 9.57102 3.14941 10.0024C3.14941 10.4339 3.50245 10.7836 3.93774 10.7836H12.0583C12.4938 10.7836 12.8468 10.4339 12.8468 10.0024Z" fill="#D4D4D4"/>
<path d="M3.93774 12.3467C3.50224 12.3467 3.14941 12.6965 3.14941 13.1279C3.14941 13.5594 3.50245 13.909 3.93774 13.909H9.04432C9.47982 13.909 9.83265 13.5592 9.83265 13.1279C9.83265 12.6963 9.47961 12.3467 9.04432 12.3467H3.93774Z" fill="#D4D4D4"/>
</svg>
