<svg width="20" height="20" viewBox="0 0 20 20" fill="none" xmlns="http://www.w3.org/2000/svg">
<path d="M18.3334 8.05145C18.3334 6.7232 17.2528 5.64258 15.9246 5.64258C14.5963 5.64258 13.5157 6.7232 13.5157 8.05145V15.9253C13.5157 17.2535 14.5963 18.3341 15.9246 18.3341C17.2528 18.3341 18.3334 17.2535 18.3334 15.9253V8.05145Z" fill="#808080"/>
<path d="M4.07556 18.3336C2.74731 18.3336 1.66669 17.253 1.66669 15.9248V10.0368C1.66669 8.70855 2.74731 7.62793 4.07556 7.62793C5.4038 7.62793 6.48443 8.70855 6.48443 10.0368V15.9248C6.48443 17.2532 5.4038 18.3336 4.07556 18.3336Z" fill="#808080"/>
<path d="M10 18.3337C8.67175 18.3337 7.59113 17.2531 7.59113 15.9249V4.07586C7.59113 2.74762 8.67175 1.66699 10 1.66699C11.3282 1.66699 12.4089 2.74762 12.4089 4.07586V15.925C12.4089 17.2533 11.3282 18.3337 10 18.3337Z" fill="#808080"/>
</svg>
