<svg width="20" height="20" viewBox="0 0 20 20" fill="none" xmlns="http://www.w3.org/2000/svg">
<path d="M18.3334 8.05145C18.3334 6.7232 17.2527 5.64258 15.9245 5.64258C14.5962 5.64258 13.5156 6.7232 13.5156 8.05145V15.9253C13.5156 17.2535 14.5962 18.3341 15.9245 18.3341C17.2527 18.3341 18.3334 17.2535 18.3334 15.9253V8.05145Z" fill="#2D6DA4"/>
<path d="M4.07562 18.3336C2.74737 18.3336 1.66675 17.253 1.66675 15.9248V10.0368C1.66675 8.70855 2.74737 7.62793 4.07562 7.62793C5.40386 7.62793 6.48449 8.70855 6.48449 10.0368V15.9248C6.48449 17.2532 5.40386 18.3336 4.07562 18.3336Z" fill="#2D6DA4"/>
<path d="M10.0002 18.3337C8.67193 18.3337 7.59131 17.2531 7.59131 15.9249V4.07586C7.59131 2.74762 8.67193 1.66699 10.0002 1.66699C11.3284 1.66699 12.4091 2.74762 12.4091 4.07586V15.925C12.4091 17.2533 11.3284 18.3337 10.0002 18.3337Z" fill="#2D6DA4"/>
</svg>
