<svg width="36" height="36" viewBox="0 0 36 36" fill="none" xmlns="http://www.w3.org/2000/svg">
<mask id="mask0" mask-type="alpha" maskUnits="userSpaceOnUse" x="0" y="0" width="36" height="36">
<circle cx="18" cy="18" r="18" fill="white"/>
</mask>
<g mask="url(#mask0)">
<circle cx="18" cy="18" r="18" fill="#F4F4F4"/>
</g>
<path d="M26.6399 26.1609H25.1999V13.2009C25.207 13.0959 25.1787 12.9915 25.1195 12.9045C25.0604 12.8175 24.9737 12.7528 24.8735 12.7209L21.3599 11.2521V26.1609H20.3999V9.36086C20.3999 9.23356 20.3493 9.11147 20.2593 9.02145C20.1693 8.93143 20.0472 8.88086 19.9199 8.88086H11.2799C11.1526 8.88086 11.0305 8.93143 10.9405 9.02145C10.8505 9.11147 10.7999 9.23356 10.7999 9.36086V26.1609H9.35988C9.23258 26.1609 9.11049 26.2114 9.02047 26.3014C8.93045 26.3915 8.87988 26.5136 8.87988 26.6409C8.87988 26.7682 8.93045 26.8903 9.02047 26.9803C9.11049 27.0703 9.23258 27.1209 9.35988 27.1209H26.6399C26.7672 27.1209 26.8893 27.0703 26.9793 26.9803C27.0693 26.8903 27.1199 26.7682 27.1199 26.6409C27.1199 26.5136 27.0693 26.3915 26.9793 26.3014C26.8893 26.2114 26.7672 26.1609 26.6399 26.1609ZM22.7999 14.6409H23.7599C23.8872 14.6409 24.0093 14.6914 24.0993 14.7814C24.1893 14.8715 24.2399 14.9936 24.2399 15.1209C24.2374 15.2474 24.1861 15.3681 24.0966 15.4576C24.0071 15.547 23.8864 15.5984 23.7599 15.6009H22.7999C22.6733 15.5984 22.5527 15.547 22.4632 15.4576C22.3737 15.3681 22.3223 15.2474 22.3199 15.1209C22.3199 14.9936 22.3705 14.8715 22.4605 14.7814C22.5505 14.6914 22.6726 14.6409 22.7999 14.6409ZM22.7999 17.5209H23.7599C23.8872 17.5209 24.0093 17.5714 24.0993 17.6614C24.1893 17.7515 24.2399 17.8736 24.2399 18.0009C24.2399 18.1282 24.1893 18.2503 24.0993 18.3403C24.0093 18.4303 23.8872 18.4809 23.7599 18.4809H22.7999C22.6726 18.4809 22.5505 18.4303 22.4605 18.3403C22.3705 18.2503 22.3199 18.1282 22.3199 18.0009C22.3199 17.8736 22.3705 17.7515 22.4605 17.6614C22.5505 17.5714 22.6726 17.5209 22.7999 17.5209ZM22.7999 20.4009H23.7599C23.8864 20.4033 24.0071 20.4547 24.0966 20.5442C24.1861 20.6337 24.2374 20.7543 24.2399 20.8809C24.2399 21.0082 24.1893 21.1303 24.0993 21.2203C24.0093 21.3103 23.8872 21.3609 23.7599 21.3609H22.7999C22.6726 21.3609 22.5505 21.3103 22.4605 21.2203C22.3705 21.1303 22.3199 21.0082 22.3199 20.8809C22.3223 20.7543 22.3737 20.6337 22.4632 20.5442C22.5527 20.4547 22.6733 20.4033 22.7999 20.4009ZM22.7999 23.2809H23.7599C23.8872 23.2809 24.0093 23.3314 24.0993 23.4214C24.1893 23.5115 24.2399 23.6336 24.2399 23.7609C24.2399 23.8882 24.1893 24.0103 24.0993 24.1003C24.0093 24.1903 23.8872 24.2409 23.7599 24.2409H22.7999C22.6726 24.2409 22.5505 24.1903 22.4605 24.1003C22.3705 24.0103 22.3199 23.8882 22.3199 23.7609C22.3199 23.6336 22.3705 23.5115 22.4605 23.4214C22.5505 23.3314 22.6726 23.2809 22.7999 23.2809ZM16.5599 11.7609H17.5199C17.6472 11.7609 17.7693 11.8114 17.8593 11.9014C17.9493 11.9915 17.9999 12.1136 17.9999 12.2409C17.9999 12.3682 17.9493 12.4903 17.8593 12.5803C17.7693 12.6703 17.6472 12.7209 17.5199 12.7209H16.5599C16.4326 12.7209 16.3105 12.6703 16.2205 12.5803C16.1305 12.4903 16.0799 12.3682 16.0799 12.2409C16.0799 12.1136 16.1305 11.9915 16.2205 11.9014C16.3105 11.8114 16.4326 11.7609 16.5599 11.7609ZM16.5599 14.6409H17.5199C17.6472 14.6409 17.7693 14.6914 17.8593 14.7814C17.9493 14.8715 17.9999 14.9936 17.9999 15.1209C17.9999 15.2482 17.9493 15.3703 17.8593 15.4603C17.7693 15.5503 17.6472 15.6009 17.5199 15.6009H16.5599C16.4326 15.6009 16.3105 15.5503 16.2205 15.4603C16.1305 15.3703 16.0799 15.2482 16.0799 15.1209C16.0799 14.9936 16.1305 14.8715 16.2205 14.7814C16.3105 14.6914 16.4326 14.6409 16.5599 14.6409ZM16.5599 17.5209H17.5199C17.6472 17.5209 17.7693 17.5714 17.8593 17.6614C17.9493 17.7515 17.9999 17.8736 17.9999 18.0009C17.9999 18.1282 17.9493 18.2503 17.8593 18.3403C17.7693 18.4303 17.6472 18.4809 17.5199 18.4809H16.5599C16.4326 18.4809 16.3105 18.4303 16.2205 18.3403C16.1305 18.2503 16.0799 18.1282 16.0799 18.0009C16.0799 17.8736 16.1305 17.7515 16.2205 17.6614C16.3105 17.5714 16.4326 17.5209 16.5599 17.5209ZM16.5599 20.4009H17.5199C17.6472 20.4009 17.7693 20.4514 17.8593 20.5414C17.9493 20.6315 17.9999 20.7536 17.9999 20.8809C17.9999 21.0082 17.9493 21.1303 17.8593 21.2203C17.7693 21.3103 17.6472 21.3609 17.5199 21.3609H16.5599C16.4326 21.3609 16.3105 21.3103 16.2205 21.2203C16.1305 21.1303 16.0799 21.0082 16.0799 20.8809C16.0799 20.7536 16.1305 20.6315 16.2205 20.5414C16.3105 20.4514 16.4326 20.4009 16.5599 20.4009ZM13.6223 11.7609H14.6399C14.7672 11.7609 14.8893 11.8114 14.9793 11.9014C15.0693 11.9915 15.1199 12.1136 15.1199 12.2409C15.1199 12.3682 15.0693 12.4903 14.9793 12.5803C14.8893 12.6703 14.7672 12.7209 14.6399 12.7209H13.6799C13.5526 12.7209 13.4305 12.6703 13.3405 12.5803C13.2505 12.4903 13.1999 12.3682 13.1999 12.2409C13.1999 12.1136 13.2505 11.9915 13.3405 11.9014C13.4305 11.8114 13.5526 11.7609 13.6799 11.7609H13.6223ZM13.6223 14.6409H14.6399C14.7672 14.6409 14.8893 14.6914 14.9793 14.7814C15.0693 14.8715 15.1199 14.9936 15.1199 15.1209C15.1199 15.2482 15.0693 15.3703 14.9793 15.4603C14.8893 15.5503 14.7672 15.6009 14.6399 15.6009H13.6799C13.5526 15.6009 13.4305 15.5503 13.3405 15.4603C13.2505 15.3703 13.1999 15.2482 13.1999 15.1209C13.1999 14.9936 13.2505 14.8715 13.3405 14.7814C13.4305 14.6914 13.5526 14.6409 13.6799 14.6409H13.6223ZM13.6223 17.5209H14.6399C14.7672 17.5209 14.8893 17.5714 14.9793 17.6614C15.0693 17.7515 15.1199 17.8736 15.1199 18.0009C15.1199 18.1282 15.0693 18.2503 14.9793 18.3403C14.8893 18.4303 14.7672 18.4809 14.6399 18.4809H13.6799C13.5526 18.4809 13.4305 18.4303 13.3405 18.3403C13.2505 18.2503 13.1999 18.1282 13.1999 18.0009C13.1999 17.8736 13.2505 17.7515 13.3405 17.6614C13.4305 17.5714 13.5526 17.5209 13.6799 17.5209H13.6223ZM13.6223 20.4009H14.6399C14.7672 20.4009 14.8893 20.4514 14.9793 20.5414C15.0693 20.6315 15.1199 20.7536 15.1199 20.8809C15.1199 21.0082 15.0693 21.1303 14.9793 21.2203C14.8893 21.3103 14.7672 21.3609 14.6399 21.3609H13.6799C13.5526 21.3609 13.4305 21.3103 13.3405 21.2203C13.2505 21.1303 13.1999 21.0082 13.1999 20.8809C13.1999 20.7536 13.2505 20.6315 13.3405 20.5414C13.4305 20.4514 13.5526 20.4009 13.6799 20.4009H13.6223ZM16.0799 26.1609V24.2409H15.1199V26.1609H14.1599V23.7321C14.1672 23.6098 14.221 23.495 14.3103 23.4111C14.3995 23.3272 14.5174 23.2806 14.6399 23.2809H16.5599C16.6872 23.2809 16.8093 23.3314 16.8993 23.4214C16.9893 23.5115 17.0399 23.6336 17.0399 23.7609V26.1609H16.0799Z" fill="#2B2B2B"/>
</svg>
