<svg width="36" height="36" viewBox="0 0 36 36" fill="none" xmlns="http://www.w3.org/2000/svg">
<mask id="mask0" mask-type="alpha" maskUnits="userSpaceOnUse" x="0" y="0" width="36" height="36">
<circle cx="18" cy="18" r="18" fill="white"/>
</mask>
<g mask="url(#mask0)">
<circle cx="18" cy="18" r="18" fill="#F4F4F4"/>
</g>
<path d="M25.9538 17.8203H10.0457C8.90232 17.8203 7.9668 18.7558 7.9668 19.8993V25.9215C7.9668 27.065 8.90232 28.0005 10.0457 28.0005H25.9538C27.0972 28.0005 28.0328 27.065 28.0328 25.9215V19.8993C28.0328 18.7558 27.0972 17.8203 25.9538 17.8203ZM12.3085 22.2472H11.5289C11.0981 22.2472 10.7493 21.8984 10.7493 21.4676C10.7493 21.0369 11.0981 20.688 11.5289 20.688H12.3085C12.7392 20.688 13.0881 21.0369 13.0881 21.4676C13.0881 21.8984 12.7392 22.2472 12.3085 22.2472ZM15.6414 22.2472H14.8618C14.4311 22.2472 14.0822 21.8984 14.0822 21.4676C14.0822 21.0369 14.4311 20.688 14.8618 20.688H15.6414C16.0722 20.688 16.421 21.0369 16.421 21.4676C16.421 21.8984 16.0722 22.2472 15.6414 22.2472ZM22.2354 22.2472H18.1295C17.6988 22.2472 17.3499 21.8984 17.3499 21.4676C17.3499 21.0369 17.6988 20.688 18.1295 20.688H22.2354C22.6662 20.688 23.015 21.0369 23.015 21.4676C23.015 21.8984 22.6662 22.2472 22.2354 22.2472ZM24.4703 22.2472C24.0395 22.2472 23.6907 21.8984 23.6907 21.4676C23.6907 21.0369 24.0395 20.688 24.4703 20.688C24.9011 20.688 25.2499 21.0369 25.2499 21.4676C25.2499 21.8984 24.9011 22.2472 24.4703 22.2472Z" fill="#2B2B2B"/>
<path d="M17.2129 15.386C17.2129 15.843 17.5834 16.2134 18.0403 16.2134C18.4973 16.2134 18.8677 15.843 18.8677 15.386C18.8677 14.9291 18.4973 14.5586 18.0403 14.5586C17.5834 14.5586 17.2129 14.9291 17.2129 15.386Z" fill="#2B2B2B"/>
<path d="M13.6554 11.5506C13.8679 11.5506 14.0804 11.4695 14.2421 11.3069C15.2866 10.2562 16.63 9.67786 18.0254 9.67786C19.4208 9.67786 20.7642 10.2562 21.8091 11.3069C22.1313 11.6308 22.6552 11.6325 22.9791 11.3102C23.303 10.988 23.3042 10.4641 22.982 10.1402C21.6245 8.77518 19.864 8.02344 18.0254 8.02344C16.1864 8.02344 14.4259 8.77518 13.0688 10.1402C12.7465 10.4641 12.7482 10.988 13.0721 11.3098C13.2334 11.4707 13.4442 11.5506 13.6554 11.5506Z" fill="#2B2B2B"/>
<path d="M20.2701 13.7858C20.4818 13.7858 20.6938 13.7047 20.8556 13.543C21.1786 13.2199 21.1782 12.696 20.8547 12.3733C20.1105 11.6295 19.0323 11.168 18.0407 11.168H18.0403H18.0016H18.0012C17.0029 11.168 15.9206 11.6299 15.1763 12.3733C14.8528 12.696 14.8528 13.2199 15.1755 13.543C15.4981 13.8664 16.022 13.8664 16.3451 13.5438C16.7842 13.1055 17.434 12.8224 18.0008 12.8224H18.0403C18.6007 12.8224 19.2461 13.1055 19.6851 13.5438C19.8469 13.7051 20.0585 13.7858 20.2701 13.7858Z" fill="#2B2B2B"/>
</svg>
