<svg width="20" height="20" viewBox="0 0 20 20" fill="none" xmlns="http://www.w3.org/2000/svg">
<path d="M20.0002 16.875C20.0002 18.5981 18.5983 20 16.8752 20H3.12505C1.40189 20 0 18.5981 0 16.875V8.74972C0 8.5356 0.0878568 8.33094 0.243265 8.18337L3.36832 5.21453C3.5947 4.99941 3.92763 4.9397 4.21452 5.06294C4.50162 5.18618 4.68758 5.46845 4.68758 5.78087V7.4771L7.30319 5.22759C7.53459 5.02836 7.86089 4.98252 8.13853 5.10998C8.41598 5.23724 8.5939 5.51469 8.5939 5.82008V7.4773L11.2095 5.22779C11.4409 5.02856 11.7672 4.98272 12.0449 5.11018C12.3223 5.23744 12.5002 5.51489 12.5002 5.82028V8.39849H14.2761L15.2803 0.68054C15.3309 0.291114 15.6625 0 16.0549 0H19.219C19.6504 0 20.0002 0.34982 20.0002 0.781264V16.875ZM4.29695 15.3125H3.90632C3.47487 15.3125 3.12505 15.6623 3.12505 16.0937C3.12505 16.5252 3.47487 16.875 3.90632 16.875H4.29695C4.7284 16.875 5.07821 16.5252 5.07821 16.0937C5.07821 15.6621 4.7286 15.3125 4.29695 15.3125ZM7.61742 15.3125H7.22679C6.79535 15.3125 6.44553 15.6623 6.44553 16.0937C6.44553 16.5252 6.79535 16.875 7.22679 16.875H7.61742C8.04887 16.875 8.39869 16.5252 8.39869 16.0937C8.39869 15.6621 8.04887 15.3125 7.61742 15.3125ZM10.9377 15.3125H10.5471C10.1156 15.3125 9.7658 15.6623 9.7658 16.0937C9.7658 16.5252 10.1156 16.875 10.5471 16.875H10.9377C11.3691 16.875 11.719 16.5252 11.719 16.0937C11.719 15.6621 11.3693 15.3125 10.9377 15.3125ZM4.29695 12.2264H3.90632C3.47487 12.2264 3.12505 12.5762 3.12505 13.0077C3.12505 13.4391 3.47487 13.7889 3.90632 13.7889H4.29695C4.7284 13.7889 5.07821 13.4391 5.07821 13.0077C5.07821 12.5762 4.7286 12.2264 4.29695 12.2264ZM7.61742 12.2264H7.22679C6.79535 12.2264 6.44553 12.5762 6.44553 13.0077C6.44553 13.4391 6.79535 13.7889 7.22679 13.7889H7.61742C8.04887 13.7889 8.39869 13.4391 8.39869 13.0077C8.39869 12.5762 8.04887 12.2264 7.61742 12.2264ZM10.9377 12.2264H10.5471C10.1156 12.2264 9.7658 12.5762 9.7658 13.0077C9.7658 13.4391 10.1156 13.7889 10.5471 13.7889H10.9377C11.3691 13.7889 11.719 13.4391 11.719 13.0077C11.719 12.5762 11.3693 12.2264 10.9377 12.2264Z" fill="url(#paint0_linear)"/>
<defs>
<linearGradient id="paint0_linear" x1="10.0001" y1="20" x2="10.0001" y2="4.28409e-07" gradientUnits="userSpaceOnUse">
<stop stop-color="#159957"/>
<stop offset="0.989867" stop-color="#155799"/>
</linearGradient>
</defs>
</svg>
