<svg width="20" height="20" viewBox="0 0 20 20" fill="none" xmlns="http://www.w3.org/2000/svg">
<path d="M18.4377 12.9687V1.56213H16.7411L14.8374 16.1942C14.7863 16.5879 14.4502 16.875 14.0636 16.875C14.03 16.875 13.9962 16.8728 13.962 16.8684C13.534 16.8127 13.2322 16.4206 13.2881 15.993L14.0728 9.96082H11.719C11.2875 9.96082 10.9377 9.611 10.9377 9.17955V7.52233L8.32209 9.77183C8.09068 9.97107 7.76439 10.0169 7.48674 9.88945C7.2093 9.76218 7.03137 9.48474 7.03137 9.17935V7.52213L4.41577 9.77163C4.18437 9.97087 3.85807 10.0167 3.58042 9.88925C3.30298 9.76198 3.12505 9.48454 3.12505 9.17915V7.60054L1.56253 9.08486V16.8746C1.56253 17.7361 2.26357 18.4371 3.12505 18.4371H16.8752C17.7367 18.4371 18.4377 17.7361 18.4377 16.8746C18.4377 16.4431 18.7875 16.0933 19.219 16.0933C19.6504 16.0933 20.0002 16.4431 20.0002 16.8746C20.0002 18.5977 18.5983 19.9996 16.8752 19.9996H3.12505C1.40189 19.9996 0 18.5977 0 16.8746V8.74972C0 8.5356 0.0878568 8.33094 0.243265 8.18337L3.36832 5.21453C3.5947 4.99941 3.92763 4.9397 4.21452 5.06294C4.50162 5.18618 4.68758 5.46845 4.68758 5.78087V7.4771L7.30319 5.22759C7.53459 5.02836 7.86089 4.98252 8.13853 5.10998C8.41598 5.23724 8.5939 5.51469 8.5939 5.82008V7.4773L11.2095 5.2278C11.4409 5.02856 11.7672 4.98272 12.0449 5.11018C12.3223 5.23745 12.5002 5.51489 12.5002 5.82028V8.39849H14.2761L15.2803 0.68054C15.3309 0.291114 15.6625 0 16.0549 0H19.219C19.6504 0 20.0002 0.34982 20.0002 0.781264V12.9689C20.0002 13.4003 19.6504 13.7501 19.219 13.7501C18.7875 13.7501 18.4377 13.4001 18.4377 12.9687ZM4.29695 15.3125H3.90632C3.47487 15.3125 3.12505 15.6623 3.12505 16.0937C3.12505 16.5252 3.47487 16.875 3.90632 16.875H4.29695C4.7284 16.875 5.07821 16.5252 5.07821 16.0937C5.07821 15.6623 4.7286 15.3125 4.29695 15.3125ZM7.61742 15.3125H7.22679C6.79535 15.3125 6.44553 15.6623 6.44553 16.0937C6.44553 16.5252 6.79535 16.875 7.22679 16.875H7.61742C8.04887 16.875 8.39869 16.5252 8.39869 16.0937C8.39869 15.6623 8.04887 15.3125 7.61742 15.3125ZM10.9377 15.3125H10.5471C10.1156 15.3125 9.7658 15.6623 9.7658 16.0937C9.7658 16.5252 10.1156 16.875 10.5471 16.875H10.9377C11.3691 16.875 11.719 16.5252 11.719 16.0937C11.719 15.6623 11.3693 15.3125 10.9377 15.3125ZM4.29695 12.2264H3.90632C3.47487 12.2264 3.12505 12.5762 3.12505 13.0077C3.12505 13.4391 3.47487 13.7889 3.90632 13.7889H4.29695C4.7284 13.7889 5.07821 13.4391 5.07821 13.0077C5.07821 12.5762 4.7286 12.2264 4.29695 12.2264ZM7.61742 12.2264H7.22679C6.79535 12.2264 6.44553 12.5762 6.44553 13.0077C6.44553 13.4391 6.79535 13.7889 7.22679 13.7889H7.61742C8.04887 13.7889 8.39869 13.4391 8.39869 13.0077C8.39869 12.5762 8.04887 12.2264 7.61742 12.2264ZM10.9377 12.2264H10.5471C10.1156 12.2264 9.7658 12.5762 9.7658 13.0077C9.7658 13.4391 10.1156 13.7889 10.5471 13.7889H10.9377C11.3691 13.7889 11.719 13.4391 11.719 13.0077C11.719 12.5762 11.3693 12.2264 10.9377 12.2264Z" fill="#D4D4D4"/>
</svg>
