<svg width="20" height="20" viewBox="0 0 20 20" fill="none" xmlns="http://www.w3.org/2000/svg">
<circle opacity="0.2" cx="10.0004" cy="9.9999" r="9.6" fill="#B1DDC7"/>
<path d="M13.1133 10.5371C11.6911 10.5355 10.5329 11.6912 10.5313 13.1132C10.5296 14.5355 11.6854 15.6936 13.1074 15.6953C14.5294 15.697 15.6878 14.5412 15.6894 13.1192C15.6911 11.6969 14.5353 10.5388 13.1133 10.5371ZM13.1083 14.8427C12.1564 14.8415 11.3827 14.0661 11.3839 13.1142C11.3851 12.1622 12.1604 11.3886 13.1124 11.3897C14.0643 11.3909 14.838 12.1663 14.8368 13.1182C14.8356 14.0702 14.0603 14.8439 13.1083 14.8427Z" fill="#159957"/>
<path d="M13.7292 12.6904L13.5374 12.6901L13.5379 12.2426C13.5381 12.0072 13.3476 11.8162 13.1122 11.8159C12.8768 11.8157 12.6858 12.0063 12.6855 12.2416L12.6846 13.1156C12.6843 13.351 12.8749 13.542 13.1103 13.5423L13.7285 13.543C13.9639 13.5432 14.1549 13.3526 14.1552 13.1173C14.1554 12.8816 13.9646 12.6906 13.7292 12.6904Z" fill="#159957"/>
<path d="M10.1165 13.116C10.1165 11.5838 11.274 10.3185 12.76 10.1442C12.4755 9.99348 12.1804 9.86453 11.8751 9.76403C12.599 9.22169 13.0683 8.35721 13.0683 7.38511C13.0683 5.74718 11.7357 4.41455 10.0978 4.41455H9.90318C8.26524 4.41455 6.93261 5.74718 6.93261 7.38511C6.93261 8.35721 7.40195 9.22169 8.12586 9.76403C7.46263 9.98234 6.84017 10.3223 6.29546 10.7703C5.29658 11.5918 4.60205 12.7379 4.33989 13.9973C4.25764 14.392 4.35625 14.7973 4.60988 15.1092C4.86232 15.4198 5.23684 15.5978 5.6372 15.5978H11.4373C10.6411 15.0592 10.1165 14.1478 10.1165 13.116Z" fill="#159957"/>
</svg>
