<svg width="128" height="128" viewBox="0 0 128 128" fill="none" xmlns="http://www.w3.org/2000/svg">
<g clip-path="url(#clip0)">
<path d="M33 66C51.2254 66 66 51.2254 66 33C66 14.7746 51.2254 0 33 0C14.7746 0 0 14.7746 0 33C0 51.2254 14.7746 66 33 66Z" fill="#00A651"/>
<path d="M29.2828 47.2681C30.7728 47.2081 32.1429 46.5621 33.1389 45.4521C33.1729 45.4141 33.2069 45.3741 33.2388 45.3341L50.8749 23.2961C51.8449 22.084 51.6489 20.3141 50.4369 19.3421C49.2249 18.3721 47.4548 18.568 46.4828 19.78L29.0448 41.5701L19.2688 32.1681C18.1488 31.0921 16.3688 31.1261 15.2928 32.2461C14.2168 33.3661 14.2508 35.1461 15.3708 36.2221L25.2828 45.7561C25.2868 45.7601 25.2908 45.7641 25.2948 45.7681C26.3208 46.7441 27.6488 47.2741 29.0569 47.2741C29.1308 47.2741 29.2068 47.2721 29.2828 47.2681Z" fill="white"/>
<path d="M64 128C99.3462 128 128 126.342 128 124.296C128 122.251 99.3462 120.592 64 120.592C28.6538 120.592 0 122.251 0 124.296C0 126.342 28.6538 128 64 128Z" fill="#EAEAEA"/>
<path d="M91.2592 39.4985V42.7346C91.2592 42.9186 91.1092 43.0685 90.9252 43.0685H90.7852C90.6012 43.0685 90.4512 42.9186 90.4512 42.7346V39.4985C90.4512 39.3145 90.6012 39.1646 90.7852 39.1646H90.9252C91.1092 39.1646 91.2592 39.3145 91.2592 39.4985Z" fill="#3F3D56"/>
<path d="M91.2879 46.6446V52.7705C91.2879 52.9545 91.1379 53.1046 90.9539 53.1046H90.7119C90.5279 53.1046 90.3779 52.9545 90.3779 52.7705V46.6446C90.3779 46.4606 90.5279 46.3105 90.7119 46.3105H90.9539C91.1379 46.3125 91.2879 46.4606 91.2879 46.6446Z" fill="#3F3D56"/>
<path d="M91.2752 55.8145V61.9984C91.2752 62.1824 91.1252 62.3325 90.9412 62.3325H90.7432C90.5592 62.3325 90.4092 62.1824 90.4092 61.9984V55.8145C90.4092 55.6305 90.5592 55.4805 90.7432 55.4805H90.9412C91.1272 55.4825 91.2752 55.6305 91.2752 55.8145Z" fill="#3F3D56"/>
<path d="M101.819 73.6206C101.877 73.6526 101.949 73.6446 101.997 73.5986C101.939 73.6146 101.879 73.6226 101.819 73.6206Z" fill="url(#paint0_linear)"/>
<path d="M104.577 76.5324C104.139 76.6664 103.721 76.8584 103.333 77.1064C101.829 77.9824 99.7826 79.6164 98.8086 80.4184C98.4546 80.7084 98.2405 80.8904 98.2405 80.8904L95.8646 79.2264L95.6186 77.8944L95.4846 77.1664L95.3105 76.2144L104.577 76.5324Z" fill="#FEB9B9"/>
<path d="M102.594 77.0085C107.742 76.6905 106.316 74.7885 106.316 74.7885C106.316 74.7885 98.2342 74.2326 96.8882 74.3126C95.5422 74.3926 93.9522 75.0325 94.1162 76.2145C94.2802 77.3965 97.0502 76.9225 97.0502 76.9225L102.594 77.0085Z" fill="#2B2B2B"/>
<path d="M105.486 37.8687H90.9883V55.0606H105.486V37.8687Z" fill="#2F2E41"/>
<path d="M105.486 37.9463H90.9883V55.1383H105.486V37.9463Z" fill="#231F20"/>
<path d="M124.857 65.8687C124.857 65.8687 125.063 65.9846 125.369 66.1926C126.631 67.0586 129.592 69.5766 126.917 72.7627C126.917 72.7627 124.826 69.3687 123.363 67.9207C123.023 67.5867 122.719 67.3567 122.479 67.2947L124.857 65.8687Z" fill="#FEB9B9"/>
<path d="M99.6627 44.4025C98.7907 48.6025 103.149 50.0285 103.149 50.0285L95.4647 52.8825C95.4647 52.8825 89.8407 50.6625 92.2947 49.4725C94.7507 48.2845 95.4647 43.2925 95.4647 43.2925L99.6627 44.4025Z" fill="#FEB9B9"/>
<path d="M112.983 73.6363C112.545 73.7703 112.125 73.9623 111.739 74.2103C110.233 75.0863 108.187 76.7203 107.211 77.5223C106.857 77.8103 106.643 77.9923 106.643 77.9923L104.267 76.3303L104.021 74.9983L103.879 74.2683L103.705 73.3203L112.983 73.6363Z" fill="#FEB9B9"/>
<path d="M111.037 74.4886C115.935 74.1706 114.829 71.9286 114.829 71.9286C114.829 71.9286 107.043 71.3366 105.763 71.4166C104.481 71.4966 102.977 72.1326 103.127 73.3186C103.277 74.5046 105.763 74.4886 105.763 74.4886H111.037Z" fill="#2B2B2B"/>
<path d="M83.1299 88.7403C84.0499 85.6103 85.4819 80.9843 86.4339 79.0283C87.6579 76.5083 89.4439 71.4224 89.4439 71.4224H101.012C102.336 72.7544 100.722 80.2884 100.688 80.4504C101.64 77.8364 103.974 75.1063 103.974 75.1063L107.5 77.9983C105.13 78.5543 102.822 87.9023 101.558 92.1803C100.294 96.4583 97.5238 96.2983 95.2259 95.6663C93.0739 95.0723 92.7978 88.6403 92.7718 87.8283V87.7443L88.9379 92.6043L88.6459 92.9723C88.5379 93.0263 88.4299 93.0803 88.3219 93.1343C85.4219 94.5623 82.2179 91.8323 83.1299 88.7403Z" fill="#555555"/>
<path opacity="0.1" d="M89.6163 64.4144C89.6323 63.3244 89.5643 62.3744 89.3583 61.7524L99.5383 67.6564L101.44 72.4884L101.512 73.2084C101.512 73.2084 101.598 73.2504 101.524 73.2504L100.83 73.3004C98.2803 73.4724 90.4403 73.9024 88.6543 72.8464C88.6503 72.8424 89.5703 67.9144 89.6163 64.4144Z" fill="black"/>
<path d="M89.6174 64.1801C89.6334 63.0901 89.5653 62.1401 89.3593 61.5181L99.5393 67.4201L100.885 72.8061L101.511 72.9681L101.637 73.0001L101.521 73.0101L100.827 73.0581C98.2773 73.2301 90.4374 73.6601 88.6514 72.6041C88.6514 72.6041 89.5714 67.6761 89.6174 64.1801Z" fill="#EAEAEA"/>
<path opacity="0.1" d="M89.3672 61.5181L99.5472 67.4201L100.893 72.8061L101.519 72.9681C101.523 72.9821 101.525 72.9961 101.531 73.0101L100.837 73.0581C100.151 72.6541 99.1692 71.6881 98.0032 69.4361C96.2532 66.0541 91.6972 64.6541 89.6272 64.1761C89.6412 63.0881 89.5692 62.1361 89.3672 61.5181Z" fill="black"/>
<path opacity="0.1" d="M125.369 66.1945C124.803 66.5385 123.561 67.3446 123.363 67.9246C123.023 67.5906 122.719 67.3606 122.479 67.2986L124.855 65.8726C124.857 65.8726 125.063 65.9865 125.369 66.1945Z" fill="black"/>
<path opacity="0.1" d="M102.115 73.0801C102.071 73.122 102.007 73.13 101.953 73.1021C102.009 73.1041 102.063 73.0961 102.115 73.0801Z" fill="black"/>
<path d="M94.4413 46.7781C91.4253 46.8521 87.6233 43.7681 87.6233 43.7681L95.2493 38.3861L94.9253 37.0381C94.9253 37.0381 85.2613 40.9201 82.8833 41.6321C80.5073 42.3441 80.5853 43.8521 80.5853 43.8521C80.5853 43.8521 82.0893 45.9101 85.9713 48.4461C88.4933 50.0881 88.6753 52.0661 88.4933 53.2541C88.4073 53.7501 88.1892 54.2141 87.8592 54.5961C86.7692 55.8821 88.1833 58.9801 88.1833 58.9801L88.5793 63.6521C88.5793 63.6521 95.7073 64.6821 98.0053 69.1181C100.303 73.5561 101.887 73.0001 101.887 73.0001C101.887 73.0001 100.779 74.1081 101.887 64.8401C102.995 55.5721 108.231 58.9781 109.177 59.5321C110.123 60.0861 113.533 62.5421 113.533 62.5421L123.119 68.0881C122.881 67.3761 125.417 65.9501 125.417 65.9501C125.417 65.9501 110.839 57.8681 108.695 53.7501C106.551 49.6321 100.219 47.8081 100.219 47.8081C98.7153 49.3921 96.5753 49.1561 96.5753 49.1561C93.8813 49.0761 94.4413 46.7781 94.4413 46.7781Z" fill="#D4D4D4"/>
<path opacity="0.1" d="M99.8404 47.0623C99.5924 46.2783 99.5604 45.4423 99.7444 44.6403L95.5464 43.5303C95.4424 44.1843 95.2964 44.8303 95.1084 45.4663C96.2204 46.9023 98.0864 47.5303 99.8404 47.0623Z" fill="black"/>
<path d="M98.5931 46.9783C101.087 46.9783 103.109 44.9564 103.109 42.4623C103.109 39.9682 101.087 37.9463 98.5931 37.9463C96.099 37.9463 94.0771 39.9682 94.0771 42.4623C94.0771 44.9564 96.099 46.9783 98.5931 46.9783Z" fill="#FEB9B9"/>
<path opacity="0.2" d="M91.8604 85.5562C91.0684 83.9742 93.6824 78.8242 93.6824 78.8242L91.8604 85.5562Z" fill="#2B2B2B"/>
<path d="M96.1907 32.0344C96.8667 31.9484 97.5547 32.0264 98.1947 32.2624C98.8267 32.5124 99.1147 33.0064 99.6287 33.3984C100.179 33.8184 101.277 33.8084 101.927 33.8864C102.715 33.9784 103.509 34.0124 104.303 33.9864C104.759 33.9464 105.219 33.9624 105.669 34.0384C106.615 34.2504 107.371 35.0224 108.077 35.7644C108.271 35.9324 108.409 36.1564 108.475 36.4064C108.497 36.6164 108.467 36.8304 108.387 37.0264C108.171 37.6904 107.863 38.3204 107.473 38.8984C107.185 39.3244 106.847 39.7244 106.683 40.2284C106.501 40.7824 106.549 41.3964 106.645 41.9764C106.769 42.7264 106.973 43.4624 107.255 44.1704C107.431 44.5364 107.551 44.9264 107.613 45.3284C107.723 46.6364 106.431 47.5604 106.187 48.8464C106.009 49.7744 106.483 50.8084 107.253 51.1724C106.651 51.4144 105.993 51.4924 105.351 51.3984C104.801 51.3164 104.179 51.0004 104.083 50.3764C104.051 50.1244 104.101 49.8624 104.051 49.6144C103.975 49.2524 103.693 48.9984 103.437 48.7644C102.781 48.1584 102.153 47.3724 102.097 46.4124C102.105 46.1164 102.095 45.8204 102.067 45.5264C101.941 44.8244 101.305 44.2984 101.315 43.5784C101.319 43.1264 101.583 42.7384 101.699 42.3064C101.913 41.5084 101.587 40.6284 101.069 40.0344C100.551 39.4384 99.8687 39.0804 99.2007 38.7364C98.7967 38.5264 98.3787 38.3104 97.9247 38.3784C97.4707 38.4464 97.0947 38.8024 96.7707 39.1764C95.7987 40.3084 95.1147 41.7164 94.2507 42.9564C93.8827 43.4844 93.4067 44.0264 92.8147 44.0264C92.5387 44.0024 92.2687 43.9364 92.0147 43.8324C90.9887 43.5224 89.9027 43.7424 88.8427 43.6704C86.1847 43.4884 83.8467 41.6604 83.0967 38.7384C84.1987 39.1984 85.3067 38.0204 86.0827 37.0164C86.8587 36.0124 87.3867 34.7684 88.2367 33.8444C88.5887 33.4784 88.9687 33.1404 89.3727 32.8304C89.6247 32.6304 89.8947 32.4224 90.2007 32.4124C90.6967 32.3984 91.0867 32.9004 91.5667 33.0464C91.8807 33.1184 92.2107 33.1064 92.5187 33.0104C93.7487 32.7144 94.9387 32.1784 96.1907 32.0344Z" fill="#231F20"/>
<path d="M65.7524 76.7941C65.7524 76.7941 52.5744 75.9981 54.1284 85.232C54.1284 85.232 53.8164 86.8641 55.2984 87.6041C55.2984 87.6041 55.3223 86.9201 56.6503 87.1541C57.1243 87.2321 57.6044 87.2561 58.0824 87.2221C58.7284 87.1801 59.3424 86.9281 59.8324 86.5061C59.8324 86.5061 63.5364 84.9761 64.9764 78.9221C64.9764 78.9221 66.0424 77.6021 66.0004 77.2621L63.7764 78.2121C63.7764 78.2121 64.5364 79.8161 63.9324 81.1481C63.9324 81.1481 63.8604 78.2681 63.4324 78.3321C63.3464 78.3441 62.2784 78.8881 62.2784 78.8881C62.2784 78.8881 63.5844 81.6821 62.5984 83.7121C62.5984 83.7121 62.9724 80.2701 61.8683 79.0901L60.3044 80.0041C60.3044 80.0041 61.8324 82.8901 60.7964 85.2461C60.7964 85.2461 61.0624 81.6341 59.9744 80.2281L58.5564 81.3341C58.5564 81.3341 59.9923 84.1781 59.1163 86.1301C59.1163 86.1301 59.0024 81.9261 58.2484 81.6081C58.2484 81.6081 57.0063 82.7041 56.8183 83.1501C56.8183 83.1501 57.8004 85.2161 57.1904 86.3041C57.1904 86.3041 56.8163 83.5021 56.5103 83.4881C56.5103 83.4881 55.2743 85.3441 55.1463 86.6181C55.1463 86.6181 55.2004 84.7261 56.2124 83.3121C56.2124 83.3121 55.0163 83.5181 54.3183 84.29C54.3183 84.29 54.5104 82.9781 56.5164 82.8621C56.5164 82.8621 57.5383 81.4541 57.8103 81.3701C57.8103 81.3701 55.8164 81.2021 54.6064 81.7401C54.6064 81.7401 55.6703 80.5021 58.1763 81.0661L59.5764 79.9221C59.5764 79.9221 56.9503 79.5641 55.8363 79.9601C55.8363 79.9601 57.1183 78.8641 59.9543 79.6621L61.4783 78.7521C61.4783 78.7521 59.2384 78.2701 57.9064 78.4401C57.9064 78.4401 59.3143 77.6821 61.9263 78.5041L63.0224 78.0141C63.0224 78.0141 61.3823 77.6921 60.9023 77.6401C60.4223 77.5881 60.3963 77.4561 60.3963 77.4561C61.4363 77.2821 62.5023 77.4021 63.4784 77.7981C63.4784 77.8001 65.7904 76.9401 65.7524 76.7941Z" fill="#EAEAEA"/>
<path d="M109.184 16.1397C109.184 16.1397 122.348 16.9337 120.81 7.69769C120.81 7.69769 121.12 6.06568 119.64 5.32568C119.64 5.32568 119.616 6.01769 118.286 5.77969C117.814 5.69969 117.334 5.67769 116.856 5.70969C116.21 5.75169 115.596 6.00569 115.106 6.42969C115.106 6.42969 111.4 7.96169 109.958 14.0157C109.958 14.0157 108.894 15.3357 108.936 15.6757L111.16 14.7257C111.16 14.7257 110.402 13.1217 110.998 11.7877C110.998 11.7877 111.07 14.6657 111.496 14.5997C111.582 14.5997 112.654 14.0417 112.654 14.0417C112.654 14.0417 111.344 11.2457 112.332 9.21569C112.332 9.21569 111.958 12.6597 113.062 13.8397L114.628 12.9117C114.628 12.9117 113.1 10.0257 114.136 7.66969C114.136 7.66969 113.87 11.2817 114.956 12.6897L116.372 11.5817C116.372 11.5817 114.938 8.73768 115.81 6.78368C115.81 6.78368 115.928 10.9897 116.68 11.3077C116.68 11.3077 117.92 10.2137 118.11 9.76169C118.11 9.76169 117.126 7.68369 117.736 6.60569C117.736 6.60569 118.11 9.40769 118.428 9.42369C118.428 9.42369 119.664 7.56569 119.792 6.30569C119.73 7.48169 119.362 8.61969 118.724 9.60969C119.438 9.47369 120.096 9.13368 120.618 8.62968C120.618 8.62968 120.424 9.94169 118.418 10.0577C118.418 10.0577 117.378 11.4677 117.122 11.5537C117.122 11.5537 119.118 11.7197 120.326 11.1817C120.326 11.1817 119.262 12.4177 116.758 11.8577L115.372 13.0017C115.372 13.0017 118 13.3517 119.114 12.9657C119.114 12.9657 117.832 14.0597 114.996 13.2637L113.472 14.1757C113.472 14.1757 115.714 14.6577 117.046 14.4857C117.046 14.4857 115.636 15.2437 113.024 14.4237L111.932 14.9117C111.932 14.9117 113.572 15.2337 114.056 15.2857C114.538 15.3377 114.562 15.4697 114.562 15.4697C113.522 15.6417 112.454 15.5237 111.48 15.1237C111.486 15.1237 109.142 15.9957 109.184 16.1397Z" fill="#EAEAEA"/>
<path d="M4.31936 98.8641L8.58135 101.576C9.24535 103.11 10.0393 104.81 10.9573 106.564L4.19736 102.88L4.20136 102.98C4.04736 101.47 4.08336 100.044 4.31936 98.7681V98.8641Z" fill="#EAEAEA"/>
<path d="M8.46198 101.306L4.33398 98.6779C4.60798 97.2499 5.13598 96.0139 5.92998 95.0639C5.97198 95.0139 6.01398 94.9659 6.05598 94.9199C6.19198 95.3539 7.00198 97.8959 8.46198 101.306Z" fill="#EAEAEA"/>
<path d="M8.18146 113.936L8.20946 114.044C7.82946 113.444 7.47546 112.834 7.14746 112.216L16.0495 114.68L16.0395 114.63C16.2995 114.968 16.5595 115.296 16.8235 115.618L8.18146 113.936Z" fill="#EAEAEA"/>
<path d="M5.48094 108.404L5.49694 108.51C4.85494 106.758 4.42494 104.938 4.21094 103.086L11.0989 106.84C11.9689 108.48 12.8689 110.02 13.8009 111.456L5.48094 108.404Z" fill="#EAEAEA"/>
<path d="M15.7918 95.2881C16.8758 96.0541 17.8818 96.9281 18.7898 97.8981L13.2778 110.372C12.4958 109.11 11.7938 107.866 11.1758 106.696L15.8678 95.3701L15.7918 95.2881Z" fill="#EAEAEA"/>
<path d="M19.8172 99.052L19.7432 98.968L13.9932 111.496C13.7932 111.192 13.5992 110.886 13.4092 110.582L18.9412 98.062L18.8672 97.978C19.1872 98.318 19.5032 98.676 19.8172 99.052Z" fill="#EAEAEA"/>
<path d="M7.06106 111.99L7.08306 112.098C6.49106 110.976 5.97506 109.816 5.53906 108.624L13.9731 111.718C14.5991 112.672 15.2371 113.578 15.8891 114.434L7.06106 111.99Z" fill="#EAEAEA"/>
<path d="M20.0528 119.076C21.8328 120.72 23.6688 122.008 25.5428 122.92C23.7408 122.776 16.4088 121.95 11.4648 117.87L20.0528 119.076Z" fill="#EAEAEA"/>
<path d="M22.7111 103.605C23.2011 104.721 23.6151 105.869 23.9511 107.041L23.8651 106.953L19.9911 118.805C19.0031 117.875 18.0731 116.887 17.2031 115.845L22.7111 103.605Z" fill="#EAEAEA"/>
<path d="M8.58537 101.256C7.00537 97.5659 6.19537 94.9039 6.18337 94.8659L6.10938 94.8599C7.38137 93.4719 9.11138 92.966 11.0354 93.242L8.58537 101.256Z" fill="#EAEAEA"/>
<path d="M17.0272 115.866C17.1092 115.964 17.1912 116.064 17.2732 116.162C18.0632 117.096 18.9032 117.986 19.7892 118.83L11.2812 117.636L11.3112 117.742C10.4472 117.016 9.67716 116.184 9.02316 115.266C8.76716 114.904 8.52116 114.536 8.28516 114.166L17.0272 115.866Z" fill="#EAEAEA"/>
<path d="M11.0511 106.462C10.1431 104.726 9.36112 103.046 8.70312 101.53L11.2091 93.3319L11.1311 93.2559C12.5831 93.4839 14.1451 94.1559 15.7031 95.2279L11.0511 106.462Z" fill="#EAEAEA"/>
<path d="M20.1475 118.952L23.9935 107.188C26.0095 114.212 25.9595 122.398 25.9535 122.92C23.8455 121.96 21.9075 120.576 20.1475 118.952Z" fill="#EAEAEA"/>
<path d="M17.0609 115.666L17.053 115.664C16.007 114.396 15.031 113.072 14.127 111.698L19.8909 99.1396C20.3129 99.6496 20.7249 100.19 21.1269 100.758C21.6969 101.578 22.1889 102.446 22.6009 103.356L17.0609 115.666Z" fill="#EAEAEA"/>
<path d="M39.9653 106.473C40.1253 107.341 40.1493 108.313 40.0453 109.341L40.0493 109.273L35.4473 111.781C36.0733 110.587 36.6133 109.429 37.0653 108.385L39.9673 106.539L39.9653 106.473Z" fill="#EAEAEA"/>
<path d="M38.7854 103.854C38.8134 103.886 38.8434 103.918 38.8714 103.952C39.4114 104.6 39.7714 105.442 39.9574 106.413L37.1475 108.201C38.1415 105.881 38.6934 104.15 38.7854 103.854Z" fill="#EAEAEA"/>
<path d="M31.4561 117.947C31.6341 117.729 31.8121 117.505 31.9901 117.275L31.982 117.309L38.042 115.631C37.818 116.051 37.576 116.467 37.318 116.875L37.336 116.801L31.4561 117.947Z" fill="#EAEAEA"/>
<path d="M33.5098 115.114C34.1438 114.136 34.7578 113.088 35.3498 111.97L40.0398 109.414C39.8958 110.676 39.6018 111.916 39.1638 113.108L39.1758 113.036L33.5098 115.114Z" fill="#EAEAEA"/>
<path d="M32.1043 104.161L35.2983 111.873C34.8783 112.669 34.4003 113.516 33.8663 114.376L30.1123 105.881C30.7303 105.221 31.4143 104.627 32.1543 104.105L32.1043 104.161Z" fill="#EAEAEA"/>
<path d="M30.0639 105.936L30.0139 105.994L33.7819 114.519C33.6519 114.725 33.5199 114.933 33.3839 115.141L29.4699 106.612L29.4199 106.67C29.6299 106.412 29.8459 106.17 30.0639 105.936Z" fill="#EAEAEA"/>
<path d="M32.0908 117.141C32.5328 116.559 32.9688 115.943 33.3948 115.293L39.1368 113.188C38.8408 113.999 38.4888 114.789 38.0848 115.553L38.1008 115.479L32.0908 117.141Z" fill="#EAEAEA"/>
<path d="M35.1036 119.481C31.7376 122.259 26.7436 122.821 25.5176 122.919C26.7936 122.297 28.0436 121.421 29.2556 120.301L35.1036 119.481Z" fill="#EAEAEA"/>
<path d="M31.1946 118.104C30.6026 118.812 29.9686 119.486 29.2966 120.118L26.6586 112.048L26.6006 112.108C26.8286 111.31 27.1106 110.528 27.4446 109.768L31.1946 118.104Z" fill="#EAEAEA"/>
<path d="M35.3955 102.712C36.7055 102.524 37.8835 102.868 38.7495 103.814L38.6995 103.818C38.6915 103.844 38.1395 105.656 37.0635 108.168L35.3955 102.712Z" fill="#EAEAEA"/>
<path d="M37.2705 116.958C37.1085 117.21 36.9425 117.46 36.7685 117.708C36.3225 118.333 35.7985 118.899 35.2105 119.393L35.2305 119.321L29.4385 120.135C30.0425 119.561 30.6145 118.956 31.1525 118.32C31.2085 118.254 31.2645 118.186 31.3205 118.118L37.2705 116.958Z" fill="#EAEAEA"/>
<path d="M32.2158 104.066C33.2778 103.336 34.3398 102.878 35.3298 102.722L35.2778 102.774L36.9838 108.356C36.5378 109.388 36.0038 110.532 35.3858 111.714L32.2158 104.066Z" fill="#EAEAEA"/>
<path d="M25.2371 122.92C25.2331 122.566 25.1991 116.99 26.5711 112.208L29.1911 120.218C27.9911 121.324 26.6711 122.266 25.2371 122.92Z" fill="#EAEAEA"/>
<path d="M27.5215 109.598C27.8015 108.98 28.1375 108.388 28.5255 107.83C28.7995 107.442 29.0795 107.076 29.3675 106.728L33.2915 115.28C32.6775 116.216 32.0115 117.115 31.2995 117.979L31.2935 117.981L27.5215 109.598Z" fill="#EAEAEA"/>
<path d="M117.18 118.37C115.062 121.98 110.792 123.41 110.792 123.41C110.792 123.41 109.954 118.986 112.072 115.376C114.19 111.766 118.46 110.336 118.46 110.336C118.46 110.336 119.298 114.76 117.18 118.37Z" fill="#EAEAEA"/>
<path d="M115.861 117.11C112.199 119.138 110.665 123.372 110.665 123.372C110.665 123.372 115.067 124.318 118.729 122.29C122.391 120.262 123.925 116.028 123.925 116.028C123.925 116.028 119.521 115.082 115.861 117.11Z" fill="#159957"/>
<path d="M27.208 103.86C29.4172 103.86 31.208 102.069 31.208 99.8599C31.208 97.6507 29.4172 95.8599 27.208 95.8599C24.9989 95.8599 23.208 97.6507 23.208 99.8599C23.208 102.069 24.9989 103.86 27.208 103.86Z" fill="#159957"/>
</g>
<defs>
<linearGradient id="paint0_linear" x1="101.905" y1="73.6156" x2="101.905" y2="73.5735" gradientUnits="userSpaceOnUse">
<stop stop-color="#808080" stop-opacity="0.251"/>
<stop offset="0.54" stop-color="#808080" stop-opacity="0.122"/>
<stop offset="1" stop-color="#808080" stop-opacity="0.102"/>
</linearGradient>
<clipPath id="clip0">
<rect width="128" height="128" fill="white"/>
</clipPath>
</defs>
</svg>
