<svg width="20" height="20" viewBox="0 0 20 20" fill="none" xmlns="http://www.w3.org/2000/svg">
<circle opacity="0.2" cx="10.0004" cy="9.9999" r="9.6" fill="#B1DDC7"/>
<path d="M10.0005 4.31104C6.86351 4.31104 4.31152 6.86297 4.31152 9.99992C4.31152 13.1366 6.86351 15.6888 10.0005 15.6888C13.1373 15.6888 15.6893 13.1369 15.6893 9.99992C15.6893 6.86297 13.1371 4.31104 10.0005 4.31104ZM11.8276 12.3866C11.6791 12.5367 11.4372 12.5379 11.2871 12.3895L10.4475 11.5585V13.876C10.4475 14.0872 10.2764 14.2584 10.0652 14.2581C9.85398 14.2581 9.68304 14.087 9.68304 13.876V11.5585L8.78621 12.4467C8.63611 12.5952 8.39414 12.594 8.2457 12.4441C8.17183 12.3696 8.13513 12.2725 8.13513 12.1752C8.13513 12.0767 8.17301 11.9785 8.2483 11.9036L9.39088 10.772C9.76188 10.401 10.3673 10.4007 10.7399 10.7722L11.8247 11.8461C11.9748 11.9948 11.976 12.2367 11.8276 12.3866ZM11.8368 8.14498L10.7323 9.25747C10.3587 9.63107 9.75265 9.63107 9.37999 9.25842L8.23859 8.12817C8.16307 8.05336 8.12519 7.95511 8.12519 7.85662C8.12519 7.75931 8.16212 7.66225 8.23599 7.58767C8.38467 7.43757 8.62664 7.43662 8.7765 7.58506L9.67333 8.47335V6.19392C9.67333 5.98273 9.84451 5.81156 10.0557 5.81156C10.2669 5.81156 10.4378 5.98273 10.4378 6.19392V8.46886L11.2942 7.60637C11.4428 7.45675 11.6848 7.45556 11.8347 7.60448C11.9845 7.75316 11.9855 7.99512 11.8368 8.14498Z" fill="#159957"/>
</svg>
