<svg width="652" height="102" viewBox="0 0 652 102" fill="none" xmlns="http://www.w3.org/2000/svg">
<mask id="mask0" mask-type="alpha" maskUnits="userSpaceOnUse" x="0" y="0" width="652" height="102">
<rect width="652" height="102" rx="4" fill="#C4C4C4"/>
</mask>
<g mask="url(#mask0)">
<path fill-rule="evenodd" clip-rule="evenodd" d="M392.902 -72.7945C415.809 -79.3313 437.445 -89.8818 460.893 -91.6342C485.991 -93.5098 515.174 -96.7941 533.193 -83.279C551.654 -69.4325 541.694 -39.8795 554.314 -21.5655C566.937 -3.2456 599.854 1.1695 605.971 22.3392C611.959 43.0629 596.511 65.9309 585.6 86.7086C575.09 106.724 561.309 125.349 543.482 141.344C525.574 157.413 505.362 172.116 481.823 179.826C458.494 187.466 433.464 188.719 410.292 184.965C388.224 181.391 370.258 170.012 352.563 158.887C335.842 148.375 319.376 137.27 309.289 121.466C299.325 105.855 300.351 86.4729 295.097 68.8536C288.766 47.6198 270.228 28.9686 274.974 6.39078C279.718 -16.1733 298.863 -37.0773 320.408 -51.5441C341.325 -65.5894 368.384 -65.7977 392.902 -72.7945Z" fill="#E5EDF4"/>
<path fill-rule="evenodd" clip-rule="evenodd" d="M278.953 55.5334C262.579 46.1543 262.723 25.1141 256.555 8.27467C250.021 -9.5619 236.075 -27.4492 242.448 -44.1206C249.318 -62.0935 268.713 -72.6783 288.868 -76.2595C308.502 -79.7481 330.141 -74.8762 347.239 -62.7399C362.914 -51.6133 369.333 -33.4987 373.788 -15.9815C377.852 0.000134027 379.26 16.8263 370.821 29.9958C362.656 42.7386 346.321 46.6088 330.942 50.8839C313.877 55.6276 295.311 64.9029 278.953 55.5334Z" fill="#AAE1C5"/>
<path fill-rule="evenodd" clip-rule="evenodd" d="M476.377 119.882C475.863 129.368 479.332 137.974 479.856 147.457C480.839 165.222 493.071 186.593 480.782 199.523C469.394 211.507 448.749 199.972 432.415 197.377C418.04 195.094 404.151 192.632 391.569 185.352C376.966 176.901 360.877 168.164 354.793 152.461C348.461 136.116 355.864 118.572 359.012 101.317C363.023 79.3301 358.925 52.9359 375.663 38.0469C392.651 22.9356 419.775 21.218 441.482 27.9581C461.409 34.1456 476.576 52.2183 483.961 71.6741C489.876 87.2547 477.279 103.236 476.377 119.882Z" fill="#BDD0E1"/>
<path fill-rule="evenodd" clip-rule="evenodd" d="M420.723 38.4967C422.996 -11.2119 483.525 -6.58308 523.692 -23.7379C575.388 -45.8172 628.635 -111.925 668.437 -67.3008C724.474 -4.47626 752.898 108.218 700.796 174.82C654.225 234.352 580.976 157.741 516.819 126.513C475.252 106.281 418.337 90.6589 420.723 38.4967Z" fill="#55C48B"/>
</g>
</svg>
